<svg width="552" height="737" viewBox="0 0 788 1053" fill="none" xmlns="http://www.w3.org/2000/svg">
<g filter="url(#filter0_d_1_2)">
<path fill-rule="evenodd" clip-rule="evenodd" d="M299.193 272.013L394.392 68.0029L419.781 79.8515L324.582 283.861L299.193 272.013Z" fill="white"/>
<path d="M598.392 491.888C598.392 558.239 542.577 612.027 473.726 612.027C404.875 612.027 349.06 558.239 349.06 491.888C349.06 425.537 404.875 371.749 473.726 371.749C542.577 371.749 598.392 425.537 598.392 491.888Z" fill="white"/>
<path d="M784.258 179.075C784.258 230.403 742.651 272.013 691.325 272.013C640 272.013 598.393 230.403 598.393 179.075C598.393 127.747 640 86.1373 691.325 86.1373C742.651 86.1373 784.258 127.747 784.258 179.075Z" fill="white"/>
<path d="M380.798 269.746C380.798 321.075 339.19 362.684 287.865 362.684C236.54 362.684 194.932 321.075 194.932 269.746C194.932 218.418 236.54 176.809 287.865 176.809C339.19 176.809 380.798 218.418 380.798 269.746Z" fill="white"/>
<path d="M131.466 92.9381C131.466 129.243 102.036 158.675 65.7329 158.675C29.4296 158.675 0 129.243 0 92.9381C0 56.6328 29.4296 27.2016 65.7329 27.2016C102.036 27.2016 131.466 56.6328 131.466 92.9381Z" fill="white"/>
<path d="M480.529 65.7365C480.529 102.042 451.099 131.473 414.796 131.473C378.492 131.473 349.063 102.042 349.063 65.7365C349.063 29.4312 378.492 0 414.796 0C451.099 0 480.529 29.4312 480.529 65.7365Z" fill="white"/>
<path fill-rule="evenodd" clip-rule="evenodd" d="M414.796 112.795C440.782 112.795 461.851 91.7272 461.851 65.7365C461.851 39.7459 440.782 18.678 414.796 18.678C388.809 18.678 367.741 39.7459 367.741 65.7365C367.741 91.7272 388.809 112.795 414.796 112.795ZM414.796 131.473C451.099 131.473 480.529 102.042 480.529 65.7365C480.529 29.4312 451.099 0 414.796 0C378.492 0 349.063 29.4312 349.063 65.7365C349.063 102.042 378.492 131.473 414.796 131.473Z" fill="white"/>
<path fill-rule="evenodd" clip-rule="evenodd" d="M474 1050V580H512L512 1050H474Z" fill="white"/>
<path fill-rule="evenodd" clip-rule="evenodd" d="M290.127 276.544L475.992 489.621L454.88 508.04L269.014 294.962L290.127 276.544Z" fill="white"/>
<path fill-rule="evenodd" clip-rule="evenodd" d="M67.9959 99.7355L290.127 276.544L272.681 298.466L50.549 121.657L67.9959 99.7355Z" fill="white"/>
<path fill-rule="evenodd" clip-rule="evenodd" d="M475.993 489.623L693.591 176.808L716.59 192.808L498.992 505.623L475.993 489.623Z" fill="white"/>
</g>
<defs>
<filter id="filter0_d_1_2" x="0" y="0" width="787.258" height="1053" filterUnits="userSpaceOnUse" color-interpolation-filters="sRGB">
<feFlood flood-opacity="0" result="BackgroundImageFix"/>
<feColorMatrix in="SourceAlpha" type="matrix" values="0 0 0 0 0 0 0 0 0 0 0 0 0 0 0 0 0 0 127 0" result="hardAlpha"/>
<feOffset dx="3" dy="3"/>
<feComposite in2="hardAlpha" operator="out"/>
<feColorMatrix type="matrix" values="0 0 0 0 0.117647 0 0 0 0 0.356863 0 0 0 0 0.368627 0 0 0 1 0"/>
<feBlend mode="normal" in2="BackgroundImageFix" result="effect1_dropShadow_1_2"/>
<feBlend mode="normal" in="SourceGraphic" in2="effect1_dropShadow_1_2" result="shape"/>
</filter>
</defs>
</svg>
